<svg id="Calque_1" data-name="Calque 1" xmlns="http://www.w3.org/2000/svg" viewBox="0 0 384.74 91.22"><path d="M159.41,50.13h9.14V96.71h-9.14Z" transform="translate(-36.92 -24.18)" style="fill:#575756"/><path d="M219.17,96.71H210V73.42q0-7.12-2.37-10.28-2.9-4-10.19-4t-10.29,4q-2.37,3.15-2.37,10.28V96.71h-9.14V73.46q0-23.32,21.8-23.33t21.7,23.33Z" transform="translate(-36.92 -24.18)" style="fill:#575756"/><path d="M269.18,73.42q0,23.37-21.71,23.38T225.68,73.42q0-23.29,21.79-23.29H260V31.76h9.14Zm-9.14,0V59.18H247.47q-7.29,0-10.19,3.89-2.37,3.18-2.38,10.35t2.38,10.34q2.9,4,10.19,4c4.87,0,8.26-1.32,10.2-4Q260,80.58,260,73.42Z" transform="translate(-36.92 -24.18)" style="fill:#575756"/><path d="M276.39,50.13h9.14V96.71h-9.14Z" transform="translate(-36.92 -24.18)" style="fill:#575756"/><path d="M336.5,73.46q0,23.25-21.8,23.25T293,73.46V50.13h9.14V73.51q0,7.11,2.37,10.28,2.89,3.87,10.19,3.87t10.2-3.87q2.37-3.17,2.37-10.28V50.13h9.23Z" transform="translate(-36.92 -24.18)" style="fill:#575756"/><path d="M421.66,96.71h-9.14V73.42q0-7.12-2.37-10.28-3-4-10.28-4t-10.2,4q-2.37,3.15-2.37,10.28V96.71h-9.14V73.42q0-7.12-2.38-10.28-3-4-10.28-4t-10.19,4q-2.38,3.15-2.38,10.28V96.71h-9.14V73.46q0-23.32,21.71-23.33,11.61,0,17.23,7,5.53-7,17.14-7,21.78,0,21.79,23.33Z" transform="translate(-36.92 -24.18)" style="fill:#575756"/><circle cx="127.05" cy="12.51" r="5.14" style="fill:#575756"/><circle cx="244.01" cy="12.51" r="5.14" style="fill:#575756"/><path d="M36.92,48.84A24.67,24.67,0,0,1,61.58,24.18h75.1V90.74A24.66,24.66,0,0,1,112,115.4H61.58A24.67,24.67,0,0,1,36.92,90.74Z" transform="translate(-36.92 -24.18)" style="fill:#76a8bb"/><path d="M98.68,98.58c-5.8,0-15.52-2.7-15.52-20.79V69.55C83,58.08,78.57,58.08,76.42,58.08s-6.78,0-6.78,12V98.3H60.86V70.09C60.86,52,70.61,49.3,76.42,49.3S91.94,52,91.94,70.09v8.23c.13,11.48,4.58,11.48,6.74,11.48s6.78,0,6.78-12V49.64h8.78V77.79C114.24,95.88,104.49,98.58,98.68,98.58Z" transform="translate(-36.92 -24.18)" style="fill:#fff"/><circle cx="28.28" cy="17.43" r="6.17" style="fill:#fff"/></svg>